<svg width="190" height="158" viewBox="0 0 190 158" fill="none" xmlns="http://www.w3.org/2000/svg">
<path fill-rule="evenodd" clip-rule="evenodd" d="M29.6633 66.0985C29.9384 64.424 31.3529 63.1375 33.0849 63.0622C34.007 55.1647 32.9876 45.1941 31.5903 34.6838C31.5488 34.6851 31.5085 34.6901 31.4666 34.6901C29.5852 34.6901 28.0376 33.2582 27.852 31.4236C18.7814 29.2008 9.69244 29.7007 2.88092 30.7561C2.65969 30.7904 2.44332 30.8274 2.22473 30.863C2.35189 31.2677 2.52616 31.7008 2.76187 32.1728C4.06031 34.7745 6.41323 34.778 8.1144 38.8325C10.7709 45.1648 6.77096 50.2999 12.9498 57.9417C14.4099 59.7478 16.8465 61.7652 18.0647 63.8227C22.2227 65.325 26.1718 66.2647 29.6633 66.0985Z" fill="#231F20"/>
<path fill-rule="evenodd" clip-rule="evenodd" d="M105.547 99.3893C105.718 97.806 105.813 96.1877 105.838 94.5388L70.4478 64.403C68.859 63.0953 64.3159 59.4645 60.9046 56.4667C60.6537 57.2045 60.1779 57.8381 59.5525 58.2778C61.6178 63.0687 63.2563 68.4242 64.4553 74.3419L64.423 74.3485C66.285 82.913 65.9198 90.2169 65.2609 94.8929C64.9261 97.268 64.4937 99.1967 64.1152 100.615C64.8857 101.005 65.5225 101.667 65.8604 102.536C65.9647 102.804 66.0312 103.077 66.0696 103.35C80.1332 98.9496 92.3959 98.1668 102.754 101.017C103.154 100.409 103.737 99.914 104.466 99.6298C104.821 99.4911 105.185 99.4133 105.547 99.3893Z" fill="#231F20"/>
<path fill-rule="evenodd" clip-rule="evenodd" d="M31.399 27.4178C31.4217 27.4174 31.4437 27.4143 31.4666 27.4143C33.4734 27.4143 35.1002 29.0431 35.1002 31.0521C35.1002 31.6021 34.9748 32.1217 34.7564 32.5892C36.0175 33.1064 37.2684 33.6841 38.5021 34.3341C45.8476 38.2052 51.801 44.067 56.3267 51.8486C56.4296 51.8145 56.5352 51.7859 56.6421 51.7606C55.3703 47.1647 55.4523 27.555 55.1602 14.5427C49.9085 12.2794 44.5605 11.0175 39.1276 10.7714C35.0254 10.5861 31.1054 11.0073 27.4253 11.8244C27.5451 12.1852 27.6123 12.5701 27.6123 12.9711C27.6123 13.9099 27.2541 14.7626 26.6711 15.4081C28.6387 19.1252 30.3486 23.1928 31.399 27.4178Z" fill="#231F20"/>
<path fill-rule="evenodd" clip-rule="evenodd" d="M23.9789 16.6091C22.2945 16.6091 20.8822 15.46 20.4703 13.9035C14.8529 16.0183 10.0342 18.8838 6.30773 21.5282C5.86673 21.8412 5.43911 22.1544 5.01772 22.4677C4.91972 22.7376 4.81601 23.0111 4.70351 23.2898C3.632 25.9452 1.66649 27.2531 1.99986 29.8637C2.23121 29.8257 2.46197 29.7872 2.69634 29.751C9.56829 28.6831 18.7247 28.1722 27.8976 30.3811C28.1459 29.0505 29.1149 27.9739 30.3856 27.5779C29.3717 23.5384 27.7403 19.6417 25.867 16.0749C25.3162 16.4114 24.6713 16.6091 23.9789 16.6091Z" fill="#231F20"/>
<path fill-rule="evenodd" clip-rule="evenodd" d="M97.6918 120.345C100.74 116.081 102.931 111.399 104.272 106.326C103.443 105.946 102.755 105.257 102.398 104.34C102.089 103.545 102.081 102.709 102.313 101.953C92.1018 99.1884 79.9822 100.019 66.0607 104.422C66.0376 104.568 66.0053 104.711 65.9649 104.853C66.1397 104.99 66.3111 105.128 66.4767 105.268C72.5109 110.357 76.8879 118.606 80.4386 131.71C81.7582 131.619 83.0436 132.263 83.7583 133.401C88.9595 129.986 93.8623 125.703 97.6918 120.345Z" fill="#231F20"/>
<path fill-rule="evenodd" clip-rule="evenodd" d="M126.937 115.458C127.676 115.853 128.284 116.501 128.612 117.344C129.142 118.706 128.793 120.191 127.845 121.181C127.932 121.338 128.018 121.494 128.101 121.648C129.793 124.797 130.882 127.642 131.55 129.711C131.554 129.699 131.556 129.687 131.559 129.675C132.299 127.121 133.817 127.015 135.207 124.135C129.992 119.162 130.596 117.293 127.557 113.658C127.354 114.264 127.147 114.864 126.937 115.458Z" fill="#231F20"/>
<path fill-rule="evenodd" clip-rule="evenodd" d="M130.24 143.983C127.816 139.84 130.16 139.109 130.709 137.444C131.558 134.874 131.168 133.713 131.184 132.118C130.683 130.235 129.456 126.304 127.005 121.832C126.858 121.914 126.706 121.991 126.544 122.054C125.8 122.344 125.02 122.368 124.303 122.179C122.46 126.437 120.417 130.321 118.176 133.827C118.509 134.167 118.781 134.579 118.965 135.052C119.693 136.924 118.767 139.033 116.897 139.762C116.797 139.801 116.696 139.833 116.595 139.862C116.731 144.344 116.335 148.889 115.076 153.121C122.566 151.976 129.958 150.615 132.327 149.428C132.786 144.617 131.707 146.491 130.24 143.983Z" fill="#231F20"/>
<path fill-rule="evenodd" clip-rule="evenodd" d="M36.264 64.6696C43.1411 62.6758 49.1576 60.1382 54.2956 57.0704C54.0033 56.5462 53.8353 55.9434 53.8353 55.3003C53.8353 54.0577 54.4586 52.9619 55.4082 52.3055C50.9829 44.7208 45.1796 39.0093 38.0315 35.2411C36.766 34.5738 35.4809 33.9851 34.1848 33.4607C33.7618 33.9388 33.2169 34.3051 32.5966 34.5085C34.0035 45.0891 35.0317 55.1389 34.1 63.1598C34.997 63.3772 35.7649 63.9241 36.264 64.6696Z" fill="#231F20"/>
<path fill-rule="evenodd" clip-rule="evenodd" d="M114.261 132.982C114.482 132.896 114.706 132.835 114.93 132.793C113.197 120.831 108.599 109.947 107.011 106.44C106.429 106.65 105.828 106.702 105.254 106.617C103.881 111.797 101.638 116.581 98.519 120.943C94.5755 126.46 89.5261 130.855 84.1795 134.346C84.5351 135.594 84.1874 136.9 83.3457 137.809C93.0708 141.015 93.827 147.006 96.3013 152.521C102.667 149.552 108.288 145.058 113.147 139.071C112.739 138.703 112.406 138.239 112.193 137.691C111.465 135.819 112.391 133.71 114.261 132.982Z" fill="#231F20"/>
<path fill-rule="evenodd" clip-rule="evenodd" d="M106.569 99.4682C107.712 99.7227 108.713 100.525 109.17 101.7C109.395 102.279 109.461 102.881 109.391 103.457C109.393 103.458 109.395 103.459 109.398 103.46C115.901 106.52 120.613 110.952 123.953 115.259C124.625 115.007 125.324 114.967 125.979 115.107C126.25 114.34 126.514 113.56 126.775 112.773C126.108 112.057 125.302 111.272 124.289 110.384C121.513 107.952 120.385 107.081 117.904 104.813L106.845 95.3968C106.803 96.7762 106.712 98.1337 106.569 99.4682Z" fill="#231F20"/>
<path fill-rule="evenodd" clip-rule="evenodd" d="M5.54529 20.8195C5.60359 20.778 5.65906 20.7362 5.71779 20.6945C9.55661 17.9706 14.536 15.0164 20.3512 12.8571C20.3914 11.5577 21.1101 10.4317 22.1667 9.82121C21.0934 8.18872 20.0192 6.68051 19 5.32629C18.6839 4.9065 18.3643 4.48944 18.041 4.07517L5.15126 4.01686C3.89738 8.9875 7.69684 13.0377 5.54529 20.8195Z" fill="#231F20"/>
<path fill-rule="evenodd" clip-rule="evenodd" d="M45.2032 93.8443C47.2097 93.8443 48.8365 95.473 48.8365 97.4821C48.8365 97.6051 48.8302 97.7267 48.8182 97.8466C53.1104 98.8208 56.7992 99.9835 59.866 101.328C60.2192 100.962 60.652 100.663 61.1564 100.466C61.8111 100.211 62.4937 100.163 63.1368 100.283C64.3296 95.745 66.0799 85.8924 63.238 73.7042L63.2751 73.6957C62.1132 68.2091 60.5665 63.2212 58.6397 58.7416C58.2719 58.8669 57.879 58.9384 57.4687 58.9384C56.4741 58.9384 55.5736 58.5373 54.9176 57.8891C49.7233 61.0036 43.6484 63.5792 36.7115 65.6029C36.8193 65.9469 36.8777 66.3125 36.8777 66.6921C36.8777 67.7279 36.4432 68.6604 35.7494 69.3228C38.0673 73.3763 42.6366 82.405 44.8275 93.8637C44.951 93.8508 45.0764 93.8443 45.2032 93.8443Z" fill="#231F20"/>
<path fill-rule="evenodd" clip-rule="evenodd" d="M19.4818 4.27131C20.6559 5.81206 21.8999 7.54742 23.1349 9.43591C23.4062 9.37125 23.6877 9.33325 23.9789 9.33325C25.208 9.33325 26.2924 9.94593 26.9502 10.8812C30.7834 10.0093 34.879 9.55648 39.1738 9.75066C44.5845 9.99573 49.9081 11.225 55.1336 13.4221C55.0326 9.3837 54.8879 6.08466 54.6432 4.24073L19.3353 4.08106C19.384 4.14441 19.4337 4.2084 19.4818 4.27131Z" fill="#231F20"/>
<path fill-rule="evenodd" clip-rule="evenodd" d="M115.577 140.007C115.026 140.007 114.487 139.88 113.999 139.643C109.031 145.786 103.27 150.397 96.7365 153.446C97.0723 154.123 97.4433 154.79 97.8714 155.441C100.861 155.087 107.352 154.28 113.959 153.29C115.277 149.111 115.713 144.572 115.577 140.007Z" fill="#231F20"/>
<path fill-rule="evenodd" clip-rule="evenodd" d="M32.6305 92.0241C32.368 93.0778 32.5098 94.2142 32.9457 95.4125C35.2461 95.6207 38.3202 95.9586 41.7094 96.4926C42.0151 95.409 42.8072 94.5314 43.8371 94.1125C41.6917 82.839 37.2122 73.9488 34.9156 69.9202C34.415 70.1805 33.8473 70.3299 33.2441 70.3299C31.3828 70.3299 29.8505 68.9277 29.6383 67.1211C29.3813 67.1322 29.1239 67.1418 28.8629 67.1418C25.722 67.1423 22.2869 66.3571 18.7021 65.1306C20.7667 69.992 17.3112 67.6953 23.5801 71.2362C23.745 71.0852 23.9025 70.5436 23.9584 70.6816C24.2789 71.4712 24.2503 68.1872 26.991 67.1799C27.7425 69.4912 27.1173 69.8313 28.135 72.4532C28.8863 74.3885 29.4618 74.3046 30.2306 77.3599C27.2488 76.6937 27.1925 75.8316 25.6761 73.2848C24.3982 76.5436 25.6015 79.7031 26.9473 82.3491C28.8791 86.1466 29.9849 85.3769 33.4032 86.6621C34.7474 93.1149 33.3521 89.1272 32.6305 92.0241Z" fill="#231F20"/>
<path fill-rule="evenodd" clip-rule="evenodd" d="M117.363 133.203C119.555 129.765 121.556 125.957 123.363 121.783C122.693 121.383 122.145 120.768 121.84 119.984C121.237 118.434 121.771 116.724 123.032 115.767C119.725 111.514 115.214 107.363 109.119 104.46C108.864 105.051 108.452 105.572 107.916 105.961C109.052 108.452 111.759 114.755 113.843 122.493C114.668 125.555 115.447 129.058 115.969 132.757C116.461 132.81 116.936 132.962 117.363 133.203Z" fill="#231F20"/>
<path fill-rule="evenodd" clip-rule="evenodd" d="M41.5715 97.5175C38.4565 97.0245 35.619 96.698 33.4077 96.4863C35.6617 101.118 41.6239 106.543 45.5779 111.692C50.3252 109.359 54.9123 107.356 59.3369 105.683C59.2438 105.522 59.158 105.355 59.0887 105.176C58.6947 104.163 58.7883 103.082 59.2503 102.187C55.9763 100.78 52.2567 99.6923 48.5675 98.8532C48.0265 100.182 46.725 101.12 45.2031 101.12C43.2083 101.12 41.5905 99.5102 41.5715 97.5175Z" fill="#231F20"/>
<path fill-rule="evenodd" clip-rule="evenodd" d="M47.2682 113.994C47.4166 114.198 47.893 114.734 48.0322 114.95C49.8132 117.708 49.4993 120.137 49.5412 124.568C54.3929 127.238 49.321 126.486 55.9063 126.382C66.862 126.21 65.499 128.845 69.953 131.496C73.5674 133.647 73.8008 132.292 78.0034 132.89C78.369 132.488 78.8271 132.16 79.3673 131.95C79.3915 131.94 79.4159 131.934 79.4399 131.926C75.951 119.067 71.6799 110.991 65.8197 106.049C65.7258 105.97 65.6281 105.893 65.5317 105.815C65.1314 106.443 64.5389 106.955 63.7926 107.246C62.4531 107.768 60.9952 107.437 60.0067 106.522C55.5714 108.187 50.9681 110.188 46.199 112.525C46.3162 112.686 46.4338 112.847 46.5461 113.008L47.2682 113.994Z" fill="#231F20"/>
<path d="M74.6119 9.50864C73.9428 8.94838 73.2053 8.67492 72.3861 8.67492C70.7203 8.67492 69.5185 9.78211 69.5185 11.3272C69.5185 12.7765 70.5562 13.7744 72.072 13.7744C72.7823 13.7744 73.4511 13.5969 74.161 13.2002L73.8744 15.5244C72.8776 15.866 72.4269 15.9619 71.7305 15.9619C69.0407 15.9619 67.1561 14.0887 67.1561 11.4229C67.1561 9.97366 67.7023 8.72952 68.7403 7.78637C69.6688 6.96598 70.8976 6.48742 72.1265 6.48742C73.0962 6.48742 73.9156 6.70605 74.8851 7.23944L74.6119 9.50864ZM77.5066 12.8994C77.5066 13.6788 77.9848 14.1846 78.7359 14.1846C79.5413 14.1846 80.1561 13.4872 80.1561 12.5576C80.1561 11.751 79.7054 11.2586 78.9541 11.2586C78.1351 11.2586 77.5066 11.9698 77.5066 12.8994ZM81.9175 15.7841H79.6644L79.828 15.1142C79.1454 15.7431 78.5991 15.9619 77.7525 15.9619C76.2097 15.9619 75.2129 14.8272 75.2129 13.0637C75.2129 10.9992 76.5782 9.48133 78.4355 9.48133C79.2822 9.48133 79.7327 9.68644 80.4153 10.3701V9.67289H82.6684L81.9175 15.7841ZM85.8091 15.7841H83.5563L84.7851 5.81752H87.038L85.8091 15.7841ZM90.3699 13.5969H86.9014L87.1333 11.6826H90.6018L90.3699 13.5969ZM96.7465 12.2979L96.3914 10.7122C96.2276 9.9326 96.2138 9.83715 96.1457 9.33106C95.9952 9.76857 95.8726 10.0829 95.7361 10.4114L94.8759 12.2979H96.7465ZM93.2644 15.7841H90.7109L95.2173 6.66522H97.8116L100.024 15.7841H97.6067L97.1973 14.116H94.0292L93.2644 15.7841ZM103.151 12.913C103.151 13.6788 103.629 14.1846 104.38 14.1846C105.185 14.1846 105.8 13.4872 105.8 12.5576C105.8 11.7645 105.349 11.2726 104.598 11.2726C103.779 11.2726 103.151 11.9834 103.151 12.913ZM107.561 15.7841H105.322L105.486 15.0596C104.776 15.7022 104.175 15.9619 103.342 15.9619C101.854 15.9619 100.857 14.8408 100.857 13.1864C100.857 11.1084 102.208 9.49509 103.97 9.49509C104.803 9.49509 105.349 9.7548 105.977 10.466L106.537 5.81752H108.79L107.561 15.7841ZM111.521 12.8994C111.521 13.6788 111.999 14.1846 112.75 14.1846C113.556 14.1846 114.171 13.4872 114.171 12.5576C114.171 11.751 113.72 11.2586 112.969 11.2586C112.15 11.2586 111.521 11.9698 111.521 12.8994ZM115.932 15.7841H113.679L113.842 15.1142C113.16 15.7431 112.614 15.9619 111.767 15.9619C110.224 15.9619 109.227 14.8272 109.227 13.0637C109.227 10.9992 110.593 9.48133 112.45 9.48133C113.297 9.48133 113.747 9.68644 114.43 10.3701V9.67289H116.683L115.932 15.7841ZM120.11 12.913C120.11 13.6788 120.588 14.1846 121.339 14.1846C122.145 14.1846 122.759 13.4872 122.759 12.5576C122.759 11.7645 122.309 11.2726 121.558 11.2726C120.738 11.2726 120.11 11.9834 120.11 12.913ZM120.411 10.4387C121.203 9.74126 121.749 9.49509 122.541 9.49509C124.084 9.49509 125.053 10.6298 125.053 12.4346C125.053 14.5538 123.893 15.9619 122.145 15.9619C121.23 15.9619 120.547 15.5926 119.947 14.7449L119.414 19.1612H117.161L118.322 9.67289H120.575L120.411 10.4387ZM128.576 15.7841H126.323L126.869 11.4091H125.9L126.118 9.67289H127.074L127.32 7.7178H129.56L129.327 9.67289H130.529L130.31 11.4091H129.109L128.576 15.7841ZM134.585 10.9168C134.585 11.6553 133.957 12.2706 133.219 12.2706C132.454 12.2706 131.812 11.628 131.812 10.8622C131.812 10.1106 132.427 9.49509 133.178 9.49509C133.97 9.49509 134.585 10.1106 134.585 10.9168ZM134.134 14.6084C134.134 15.3469 133.506 15.9619 132.768 15.9619C132.004 15.9619 131.362 15.3191 131.362 14.5538C131.362 13.8017 131.976 13.1864 132.727 13.1864C133.519 13.1864 134.134 13.8017 134.134 14.6084ZM73.0619 32.7453L71.1188 26.9999L69.1544 32.7453H73.0619ZM74.0329 35.62H68.1831L67.2113 38.471H63.238L68.9558 22.9545H73.3043L79.0221 38.471H75.0048L74.0329 35.62ZM94.3434 38.471H90.568L84.2537 28.8779V38.471H80.4792V22.8429H84.2537L90.568 32.526V22.8429H94.3434V38.471ZM105.646 32.7453L103.703 26.9999L101.738 32.7453H105.646ZM106.617 35.62H100.767L99.7953 38.471H95.822L101.54 22.9545H105.888L111.606 38.471H107.589L106.617 35.62ZM116.838 35.575H121.872V38.471H113.063V22.8429H116.838V35.575ZM137.104 22.8429L131.696 33.2761V38.471H127.898V33.2761L122.49 22.8429H126.817L129.819 29.2088L132.821 22.8429H137.104ZM150.237 22.8429V25.8506H145.998V38.471H142.2V25.8506H138.005V22.8429H150.237ZM155.14 22.8429V38.471H151.365V22.8429H155.14ZM170.785 24.2587C172.087 25.3056 172.929 26.7195 173.312 28.502H169.316C169.022 27.7808 168.57 27.2122 167.959 26.8003C167.348 26.3883 166.623 26.1815 165.784 26.1815C164.681 26.1815 163.79 26.5862 163.113 27.3975C162.436 28.2069 162.097 29.2899 162.097 30.6463C162.097 32.0025 162.436 33.0817 163.113 33.884C163.79 34.6882 164.681 35.0892 165.784 35.0892C166.623 35.0892 167.348 34.8824 167.959 34.4704C168.57 34.0585 169.022 33.4973 169.316 32.7903H173.312C172.929 34.5587 172.087 35.9705 170.785 37.0229C169.482 38.077 167.837 38.6041 165.85 38.6041C164.334 38.6041 163.003 38.2677 161.855 37.5987C160.707 36.9277 159.82 35.9887 159.194 34.7799C158.569 33.571 158.256 32.1931 158.256 30.6463C158.256 29.0992 158.569 27.7214 159.194 26.5126C159.82 25.3056 160.707 24.3647 161.855 23.6939C163.003 23.0246 164.334 22.6883 165.85 22.6883C167.837 22.6883 169.482 23.2118 170.785 24.2587ZM186.754 36.3484C186.335 37.0428 185.717 37.5949 184.9 38.0069C184.083 38.4188 183.093 38.6257 181.93 38.6257C180.179 38.6257 178.737 38.1993 177.603 37.3431C176.47 36.4886 175.852 35.2961 175.749 33.7636H179.767C179.826 34.3518 180.036 34.8157 180.396 35.1558C180.757 35.4939 181.216 35.663 181.776 35.663C182.262 35.663 182.644 35.5317 182.924 35.2655C183.203 35.0012 183.343 34.6467 183.343 34.2042C183.343 33.8066 183.215 33.4757 182.957 33.2095C182.699 32.945 182.38 32.7274 181.997 32.5583C181.614 32.3893 181.084 32.1859 180.408 31.9503C179.421 31.6121 178.616 31.283 177.991 30.9663C177.364 30.6498 176.827 30.1784 176.378 29.5524C175.929 28.9264 175.705 28.1117 175.705 27.1098C175.705 26.1815 175.941 25.3775 176.411 24.7012C176.882 24.023 177.533 23.5032 178.365 23.1415C179.197 22.7817 180.15 22.6002 181.224 22.6002C182.961 22.6002 184.341 23.0139 185.364 23.8378C186.386 24.6635 186.965 25.7984 187.097 27.2428H183.013C182.938 26.7267 182.75 26.3182 182.45 26.0162C182.148 25.7139 181.739 25.5627 181.224 25.5627C180.782 25.5627 180.426 25.6798 180.154 25.9152C179.881 26.1529 179.745 26.4982 179.745 26.9549C179.745 27.3238 179.866 27.6368 180.109 27.8939C180.352 28.153 180.658 28.3618 181.026 28.5236C181.393 28.6872 181.923 28.8923 182.615 29.1424C183.616 29.4823 184.432 29.8169 185.066 30.1498C185.698 30.4807 186.243 30.9628 186.7 31.596C187.155 32.2309 187.384 33.0548 187.384 34.0729C187.384 34.8985 187.174 35.6558 186.754 36.3484ZM84.808 46.4243V50.9327H92.0826V54.8634H84.808V59.6495H92.9952V63.8234H79.6042V42.2779H92.9952V46.4243H84.808ZM114.988 63.8234H109.783L101.078 50.5981V63.8234H95.8739V42.2779H101.078L109.783 55.6273V42.2779H114.988V63.8234ZM135.392 44.0461C137.137 45.368 138.221 47.1534 138.647 49.4101H133.139C132.773 48.6388 132.215 48.0238 131.465 47.5651C130.714 47.1088 129.811 46.8805 128.756 46.8805C127.113 46.8805 125.794 47.4336 124.799 48.5421C123.805 49.6482 123.308 51.1461 123.308 53.0357C123.308 55.0891 123.831 56.6613 124.876 57.7599C125.92 58.856 127.406 59.404 129.334 59.404C130.572 59.404 131.658 59.0644 132.592 58.3849C133.524 57.7029 134.184 56.7331 134.569 55.4735H127.996V51.7265H138.922V56.8747C138.516 58.1343 137.867 59.3025 136.974 60.3786C136.081 61.4574 134.94 62.3304 133.55 62.9999C132.16 63.672 130.572 64.0068 128.787 64.0068C126.615 64.0068 124.719 63.5431 123.095 62.6205C121.472 61.6955 120.22 60.4011 119.337 58.7346C118.454 57.068 118.013 55.1684 118.013 53.0357C118.013 50.903 118.454 49.0034 119.337 47.3368C120.22 45.6729 121.467 44.3759 123.08 43.4509C124.693 42.5285 126.575 42.0645 128.726 42.0645C131.424 42.0645 133.647 42.7268 135.392 44.0461ZM146.723 42.2779V63.8234H141.519V42.2779H146.723ZM170.728 63.8234H165.522L156.817 50.5981V63.8234H151.614V42.2779H156.817L165.522 55.6273V42.2779H170.728V63.8234ZM179.197 46.4243V50.9327H186.471V54.8634H179.197V59.6495H187.384V63.8234H173.993V42.2779H187.384V46.4243H179.197Z" fill="#231F20"/>
</svg>
