<?xml version="1.0" encoding="iso-8859-1"?>
<!-- Uploaded to: SVG Repo, www.svgrepo.com, Generator: SVG Repo Mixer Tools -->
<svg fill="#000000" height="800px" width="800px" version="1.1" id="Layer_1" xmlns="http://www.w3.org/2000/svg" xmlns:xlink="http://www.w3.org/1999/xlink" 
	 viewBox="0 0 511.965 511.965" xml:space="preserve">
<g>
	<g>
		<g>
			<path d="M489.107,33.23l-10.371-10.372c-30.479-30.476-80.067-30.479-110.546,0l-15.845,15.844L60.791,330.256
				c-0.097,0.097-0.181,0.202-0.273,0.303c-0.984,1.02-1.769,2.24-2.253,3.62l-57.7,164.475c-1.273,3.627-0.353,7.664,2.365,10.382
				c1.908,1.907,4.464,2.929,7.073,2.929c1.108,0,2.227-0.185,3.309-0.564l33.089-11.61c5.211-1.828,7.954-7.535,6.125-12.747
				c-1.828-5.211-7.534-7.954-12.747-6.125l-13.455,4.72l45.548-129.836l84.288,84.288l-73.921,25.933
				c-5.211,1.828-7.954,7.535-6.125,12.747c1.829,5.212,7.535,7.957,12.747,6.125l88.925-31.196
				c1.376-0.483,2.593-1.264,3.611-2.245c0.103-0.095,0.212-0.182,0.311-0.282l291.548-291.549c0.002-0.002,0.003-0.003,0.005-0.005
				l15.845-15.844C519.584,113.298,519.584,63.707,489.107,33.23z M174.638,429.96l-92.633-92.633L359.416,59.916l92.633,92.633
				L174.638,429.96z M474.964,129.633l-8.773,8.773L419.875,92.09l-46.316-46.316L382.332,37c22.679-22.68,59.582-22.68,82.261,0
				l10.371,10.372C497.644,70.051,497.644,106.954,474.964,129.633z"/>
			<path d="M301.537,159.959L133.297,328.2c-3.905,3.905-3.905,10.237,0,14.143c1.953,1.953,4.512,2.929,7.071,2.929
				s5.119-0.976,7.071-2.929l168.24-168.241c3.906-3.905,3.906-10.237,0.001-14.143
				C311.774,156.054,305.444,156.055,301.537,159.959z"/>
			<path d="M351.245,110.253l-16.251,16.25c-3.905,3.905-3.905,10.237,0,14.142c1.954,1.953,4.512,2.929,7.072,2.929
				c2.559,0,5.118-0.977,7.071-2.929l16.251-16.25c3.905-3.905,3.905-10.237,0-14.142
				C361.484,106.348,355.154,106.348,351.245,110.253z"/>
		</g>
	</g>
</g>
</svg>